) (`-.                           (` .-') /`           ) (`-.
       ( OO ).                          `.( OO ),'            ( OO ).
      (_/.  _)-.-'),-----. ,--.     ,--./  .--.  .-'),-----.(_/.  _)-.
         `.'  ( OO'  .-.  '|  |.-') |      |  | ( OO'  .-.  '  `.'  /
             /Y   |  | |  ||  | OO )|  |   |  |,/   |  | |  |      /
             _) |  ||  ||  |`-' ||  |.'.|  |_)_) |  ||  |      |
        .'    _) |  | |  (|  '---.'|         |    |  | |  | .'    _)
       /  .'.    `'  '-'  '|      | |   ,'.   |    `'  '-'  '/  .'.  
      '--'   '--'   `-----' `------' '--'   '--'      `-----''--'   '--'


      ßßßßßßßßßßßßßßßßßßßßßßßßßßßßßßßßßßßßßßßßßßßßßßßßßßßßßßßßßßßßßßßßßßßßßß

               Û°°°°°°°°°°°°°°°°°°°°°°°°°°°°°°°°°°°°°°°°°°Û
              ÛÛ Ghost Of Girlfriends Past[2009]DvDrip-LW ÛÛ
               Û°°°°°°°°°°°°°°°°°°°°°°°°°°°°°°°°°°°°°°°°°°Û

File Name    : Ghost Of Girlfriends Past[2009]DvDrip-LW
Type         : Movie
Format       : MP4
File Size    : 875 MB
Duration     : 01:40:38
Language     : English
Source       : DvD
Subtitles    : None
Genre        : Comedy | Fantasy | Romance
IMDB Link    : http://www.imdb.com/title/tt0821640/
IMDB Rating  : 5.6/10
IMDB Votes   : 5,528 Votes
     ÜÜÜÜÜÜÜÜÜÜÜÜÜÜÜÜÜÜÜÜÜÜÜÜÜÜÜÜÜÜÜÜÜÜÜÜÜÜÜÜÜÜÜÜÜÜÜÜÜÜÜÜÜÜÜÜÜÜÜÜÜÜÜÜÜÜÜÜÜÜ
 
                        Û°°°°°°°°°°°°°°°°°°°°°°°°Û
                       ÛÛ       Video Info       ÛÛ
                        Û°°°°°°°°°°°°°°°°°°°°°°°°Û

Format                           : MPEG-4 Visual
Format profile                   : Simple@L3
Format settings, BVOP            : No
Format settings, QPel            : No
Format settings, GMC             : No warppoints
Format settings, Matrix          : Default (H.263)
Codec ID                         : 20
Duration                         : 1h 40mn
Bit rate mode                    : Constant
Bit rate                         : 1 117 Kbps
Nominal bit rate                 : 1 024 Kbps
Width                            : 720 pixels
Height                           : 304 pixels
Display aspect ratio             : 2.35
Frame rate mode                  : Constant
Frame rate                       : 23.976 fps
Resolution                       : 24 bits
Colorimetry                      : 4:2:0
Scan type                        : Progressive
Bits/(Pixel*Frame)               : 0.213
Stream size                      : 804 MiB (92%)
     ÜÜÜÜÜÜÜÜÜÜÜÜÜÜÜÜÜÜÜÜÜÜÜÜÜÜÜÜÜÜÜÜÜÜÜÜÜÜÜÜÜÜÜÜÜÜÜÜÜÜÜÜÜÜÜÜÜÜÜÜÜÜÜÜÜÜÜÜÜÜ

                         Û°°°°°°°°°°°°°°°°°°°°°°°°Û
                        ÛÛ      Sound Info        ÛÛ
                         Û°°°°°°°°°°°°°°°°°°°°°°°°Û

Format                           : AAC
Format/Info                      : Advanced Audio Codec
Format version                   : Version 4
Format profile                   : LC
Format settings, SBR             : No
Codec ID                         : 40
Duration                         : 1h 40mn
Bit rate mode                    : Constant
Bit rate                         : 96.0 Kbps
Nominal bit rate                 : 48.0 Kbps
Channel(s)                       : 2 channels
Channel positions                : L R
Sampling rate                    : 32.0 KHz
Resolution                       : 16 bits
Stream size                      : 69.1 MiB (8%)
    ÜÜÜÜÜÜÜÜÜÜÜÜÜÜÜÜÜÜÜÜÜÜÜÜÜÜÜÜÜÜÜÜÜÜÜÜÜÜÜÜÜÜÜÜÜÜÜÜÜÜÜÜÜÜÜÜÜÜÜÜÜÜÜÜÜÜÜÜÜÜ

                          Û°°°°°°°°°°°°°°°°°°°°°°°°Û
                         ÛÛ          Plot          ÛÛ
                          Û°°°°°°°°°°°°°°°°°°°°°°°°Û

When he attends his younger brother's wedding, 
playboy Connor (Matthew McConaughey) is troubled 
to discover that the ghosts of his many girlfriends 
have come to give him a piece of their mind and teach 
him a thing or two about true love. As the apparitions 
visit him, he rediscovers old feelings for the first 
love of his life. Mark Waters directs this delightful 
romantic comedy also starring Jennifer Garner and 
Michael Douglas.

Starring: Matthew McConaughey, Jennifer Garner

Director: Mark Waters
    ÜÜÜÜÜÜÜÜÜÜÜÜÜÜÜÜÜÜÜÜÜÜÜÜÜÜÜÜÜÜÜÜÜÜÜÜÜÜÜÜÜÜÜÜÜÜÜÜÜÜÜÜÜÜÜÜÜÜÜÜÜÜÜÜÜÜÜÜÜÜ

ScreenShots 
http://imgshack.info/images/vxi8qcxgcdpklr2zx8.png 
http://imgshack.info/images/i94q8qpq87z82q4dnt.png 
http://imgshack.info/images/2szxfdlwy5il13flgrhp.png 
http://imgshack.info/images/pzxhiyr9t4gkvmxsf3p9.jpg 
http://bit-byte.forums-free.com/